<?xml version="1.0" standalone="no"?><svg xmlns="http://www.w3.org/2000/svg" viewBox="0 0 1440 320"><path fill="#2b2d42" fill-opacity="1" d="M0,32L30,64C60,96,120,160,180,202.7C240,245,300,267,360,250.7C420,235,480,181,540,160C600,139,660,149,720,176C780,203,840,245,900,234.7C960,224,1020,160,1080,133.3C1140,107,1200,117,1260,106.7C1320,96,1380,64,1410,48L1440,32L1440,320L1410,320C1380,320,1320,320,1260,320C1200,320,1140,320,1080,320C1020,320,960,320,900,320C840,320,780,320,720,320C660,320,600,320,540,320C480,320,420,320,360,320C300,320,240,320,180,320C120,320,60,320,30,320L0,320Z"></path></svg>